<svg width="21pt" height="13pt" viewBox="0 0 21 13" xmlns="http://www.w3.org/2000/svg"><g id="fontsvg1667054535739" stroke-linecap="round" fill-rule="evenodd" fill="#ffff00"><path d="M 15.36 1.02 L 13.11 0.96 L 13.11 11.91 L 13.77 11.91 L 13.77 7.26 Q 13.796 4.339 13.821 3.475 A 12.184 12.184 0 0 1 13.83 3.24 Q 13.86 2.64 14.07 2.64 A 0.144 0.144 0 0 1 14.19 2.711 Q 14.272 2.829 14.3 3.14 A 3.313 3.313 0 0 1 14.31 3.285 A 14.231 14.231 0 0 1 14.32 3.634 Q 14.336 4.445 14.339 6.609 A 752.936 752.936 0 0 1 14.34 7.62 L 14.34 12.63 L 12.36 12.63 L 12.33 6.57 A 2061.048 2061.048 0 0 1 12.33 5.134 Q 12.334 0.439 12.36 0.36 A 0.068 0.068 0 0 1 12.408 0.325 Q 12.674 0.227 14.387 0.213 A 76.027 76.027 0 0 1 15.03 0.21 A 127.236 127.236 0 0 1 15.689 0.212 Q 17.007 0.218 17.385 0.255 Q 17.85 0.3 18.3 0.51 A 3.524 3.524 0 0 1 19.992 2.213 A 4.394 4.394 0 0 1 20.01 2.25 A 3.063 3.063 0 0 1 20.275 3.154 A 3.921 3.921 0 0 1 20.31 3.69 A 3.63 3.63 0 0 1 20.039 5.109 A 3.424 3.424 0 0 1 19.29 6.21 A 2.836 2.836 0 0 1 18.533 6.765 Q 18.184 6.945 17.751 7.069 A 5.819 5.819 0 0 1 17.34 7.17 Q 16.89 7.26 16.59 7.26 A 1.269 1.269 0 0 1 16.379 7.244 Q 15.99 7.178 15.99 6.84 A 0.56 0.56 0 0 1 15.996 6.753 Q 16.014 6.642 16.081 6.6 A 0.156 0.156 0 0 1 16.11 6.585 Q 16.207 6.549 16.542 6.502 A 12.627 12.627 0 0 1 16.71 6.48 Q 18.48 6.3 19.29 4.71 A 3.022 3.022 0 0 0 19.458 4.233 A 2.187 2.187 0 0 0 19.53 3.69 A 2.531 2.531 0 0 0 18.659 1.764 A 3.893 3.893 0 0 0 18.21 1.41 Q 17.849 1.16 17.501 1.103 A 1.304 1.304 0 0 0 17.445 1.095 A 3.794 3.794 0 0 0 17.257 1.079 Q 16.749 1.044 15.36 1.02 Z M 1.56 0.81 L 0.78 0.81 L 0.78 6.33 A 882.945 882.945 0 0 0 0.781 7.752 Q 0.785 10.068 0.802 10.878 A 14.451 14.451 0 0 0 0.81 11.16 Q 0.84 11.88 1.05 11.88 A 0.135 0.135 0 0 0 1.147 11.77 Q 1.286 11.416 1.313 9.912 A 44.19 44.19 0 0 0 1.32 9.12 A 93.653 93.653 0 0 1 1.323 8.356 Q 1.333 7.105 1.38 6.66 Q 1.432 6.165 1.62 6.1 A 0.182 0.182 0 0 1 1.68 6.09 Q 1.706 6.09 1.841 6.134 A 6.251 6.251 0 0 1 1.89 6.15 A 0.134 0.134 0 0 1 1.957 6.231 Q 2.05 6.449 2.067 7.232 A 17.191 17.191 0 0 1 2.07 7.59 L 2.07 9.42 L 2.04 12.6 L 1.32 12.63 A 0.862 0.862 0 0 0 1.288 12.631 Q 1.221 12.633 1.08 12.645 A 10.417 10.417 0 0 1 1.007 12.651 Q 0.908 12.658 0.859 12.66 A 0.704 0.704 0 0 1 0.84 12.66 Q 0.54 12.66 0.3 12.6 L 0 12.54 L 0 6.36 A 706.156 706.156 0 0 1 0.001 4.904 Q 0.01 0.677 0.073 0.185 A 0.121 0.121 0 0 1 0.09 0.12 Q 0.207 0.003 0.921 0 A 9.082 9.082 0 0 1 0.96 0 A 11.674 11.674 0 0 1 1.391 0.007 Q 2.204 0.038 2.356 0.193 A 0.147 0.147 0 0 1 2.37 0.21 A 0.442 0.442 0 0 1 2.448 0.312 A 0.348 0.348 0 0 1 2.49 0.48 Q 2.49 0.81 1.56 0.81 Z M 9.33 6.3 L 9.33 9.18 A 87.243 87.243 0 0 1 9.327 9.961 Q 9.305 12.406 9.136 12.561 A 0.04 0.04 0 0 1 9.12 12.57 A 5.907 5.907 0 0 1 9.058 12.59 Q 8.934 12.63 8.91 12.63 A 0.197 0.197 0 0 1 8.749 12.541 Q 8.646 12.405 8.61 12.06 A 6.389 6.389 0 0 1 8.587 11.745 Q 8.559 11.223 8.552 10.208 A 103.555 103.555 0 0 1 8.55 9.54 L 8.55 6.75 L 6.27 6.75 A 49.842 49.842 0 0 1 5.649 6.746 Q 4.805 6.736 4.378 6.694 A 3.718 3.718 0 0 1 4.215 6.675 A 1.8 1.8 0 0 1 4.037 6.641 Q 3.69 6.555 3.69 6.36 Q 3.69 6.334 3.734 6.199 A 6.251 6.251 0 0 1 3.75 6.15 A 0.151 0.151 0 0 1 3.855 6.079 Q 4.26 5.94 6.21 5.94 L 8.55 5.94 L 8.55 3.15 A 88.22 88.22 0 0 1 8.552 2.487 Q 8.568 0.358 8.694 0.187 A 0.057 0.057 0 0 1 8.7 0.18 Q 8.82 0.06 9.09 0.06 A 0.137 0.137 0 0 1 9.14 0.164 Q 9.304 0.866 9.33 6.3 Z" vector-effect="non-scaling-stroke"/></g></svg>